<svg id="visual" viewBox="0 0 960 540" width="960" height="540" xmlns="http://www.w3.org/2000/svg" xmlns:xlink="http://www.w3.org/1999/xlink" version="1.1"><g stroke-width="1" stroke-linejoin="bevel"><path d="M492 290L574 341L541 260Z" fill="#004ba0" stroke="#004ba0"></path><path d="M492 290L486 378L574 341Z" fill="#ffffff" stroke="#ffffff"></path><path d="M574 341L647 276L541 260Z" fill="#d5d8ec" stroke="#d5d8ec"></path><path d="M671 453L650 348L574 341Z" fill="#969fd0" stroke="#969fd0"></path><path d="M574 341L650 348L647 276Z" fill="#d5d8ec" stroke="#d5d8ec"></path><path d="M590 187L518 187L541 260Z" fill="#818dc6" stroke="#818dc6"></path><path d="M541 260L518 187L492 290Z" fill="#ffffff" stroke="#ffffff"></path><path d="M647 276L590 187L541 260Z" fill="#818dc6" stroke="#818dc6"></path><path d="M380 434L473 427L486 378Z" fill="#526bb3" stroke="#526bb3"></path><path d="M486 378L543 468L574 341Z" fill="#004ba0" stroke="#004ba0"></path><path d="M473 427L543 468L486 378Z" fill="#6a7cbd" stroke="#6a7cbd"></path><path d="M372 300L379 341L492 290Z" fill="#d5d8ec" stroke="#d5d8ec"></path><path d="M492 290L379 341L486 378Z" fill="#818dc6" stroke="#818dc6"></path><path d="M407 144L372 300L492 290Z" fill="#c0c4e3" stroke="#c0c4e3"></path><path d="M732 287L653 154L647 276Z" fill="#365baa" stroke="#365baa"></path><path d="M647 276L653 154L590 187Z" fill="#818dc6" stroke="#818dc6"></path><path d="M609 107L471 119L518 187Z" fill="#d5d8ec" stroke="#d5d8ec"></path><path d="M757 323L732 287L650 348Z" fill="#004ba0" stroke="#004ba0"></path><path d="M650 348L732 287L647 276Z" fill="#ffffff" stroke="#ffffff"></path><path d="M543 468L671 453L574 341Z" fill="#eaebf6" stroke="#eaebf6"></path><path d="M269 354L380 434L379 341Z" fill="#d5d8ec" stroke="#d5d8ec"></path><path d="M379 341L380 434L486 378Z" fill="#c0c4e3" stroke="#c0c4e3"></path><path d="M473 427L463 540L543 468Z" fill="#ffffff" stroke="#ffffff"></path><path d="M609 107L518 187L590 187Z" fill="#ffffff" stroke="#ffffff"></path><path d="M518 187L407 144L492 290Z" fill="#d5d8ec" stroke="#d5d8ec"></path><path d="M471 119L407 144L518 187Z" fill="#ffffff" stroke="#ffffff"></path><path d="M653 154L609 107L590 187Z" fill="#969fd0" stroke="#969fd0"></path><path d="M765 410L757 323L650 348Z" fill="#526bb3" stroke="#526bb3"></path><path d="M776 169L668 125L653 154Z" fill="#969fd0" stroke="#969fd0"></path><path d="M512 0L417 120L471 119Z" fill="#6a7cbd" stroke="#6a7cbd"></path><path d="M471 119L417 120L407 144Z" fill="#ffffff" stroke="#ffffff"></path><path d="M776 169L653 154L732 287Z" fill="#6a7cbd" stroke="#6a7cbd"></path><path d="M653 154L668 125L609 107Z" fill="#eaebf6" stroke="#eaebf6"></path><path d="M463 540L608 540L543 468Z" fill="#d5d8ec" stroke="#d5d8ec"></path><path d="M543 468L608 540L671 453Z" fill="#d5d8ec" stroke="#d5d8ec"></path><path d="M413 540L463 540L473 427Z" fill="#eaebf6" stroke="#eaebf6"></path><path d="M758 540L765 410L671 453Z" fill="#abb1d9" stroke="#abb1d9"></path><path d="M671 453L765 410L650 348Z" fill="#eaebf6" stroke="#eaebf6"></path><path d="M608 540L636 540L671 453Z" fill="#d5d8ec" stroke="#d5d8ec"></path><path d="M407 144L285 273L372 300Z" fill="#969fd0" stroke="#969fd0"></path><path d="M372 300L269 354L379 341Z" fill="#abb1d9" stroke="#abb1d9"></path><path d="M258 166L285 273L407 144Z" fill="#818dc6" stroke="#818dc6"></path><path d="M380 434L413 540L473 427Z" fill="#969fd0" stroke="#969fd0"></path><path d="M322 540L413 540L380 434Z" fill="#969fd0" stroke="#969fd0"></path><path d="M285 273L269 354L372 300Z" fill="#818dc6" stroke="#818dc6"></path><path d="M844 209L776 169L732 287Z" fill="#ffffff" stroke="#ffffff"></path><path d="M848 265L732 287L757 323Z" fill="#ffffff" stroke="#ffffff"></path><path d="M609 0L512 0L609 107Z" fill="#c0c4e3" stroke="#c0c4e3"></path><path d="M609 107L512 0L471 119Z" fill="#969fd0" stroke="#969fd0"></path><path d="M288 91L258 166L407 144Z" fill="#c0c4e3" stroke="#c0c4e3"></path><path d="M609 0L609 107L695 0Z" fill="#ffffff" stroke="#ffffff"></path><path d="M169 385L248 423L269 354Z" fill="#6a7cbd" stroke="#6a7cbd"></path><path d="M269 354L248 423L380 434Z" fill="#abb1d9" stroke="#abb1d9"></path><path d="M875 128L779 110L776 169Z" fill="#969fd0" stroke="#969fd0"></path><path d="M776 169L779 110L668 125Z" fill="#526bb3" stroke="#526bb3"></path><path d="M288 91L407 144L417 120Z" fill="#969fd0" stroke="#969fd0"></path><path d="M285 273L196 242L269 354Z" fill="#d5d8ec" stroke="#d5d8ec"></path><path d="M843 393L848 265L757 323Z" fill="#6a7cbd" stroke="#6a7cbd"></path><path d="M248 423L322 540L380 434Z" fill="#ffffff" stroke="#ffffff"></path><path d="M695 0L609 107L668 125Z" fill="#c0c4e3" stroke="#c0c4e3"></path><path d="M765 410L843 393L757 323Z" fill="#004ba0" stroke="#004ba0"></path><path d="M886 474L843 393L765 410Z" fill="#d5d8ec" stroke="#d5d8ec"></path><path d="M636 540L758 540L671 453Z" fill="#6a7cbd" stroke="#6a7cbd"></path><path d="M848 265L844 209L732 287Z" fill="#eaebf6" stroke="#eaebf6"></path><path d="M354 0L288 91L417 120Z" fill="#818dc6" stroke="#818dc6"></path><path d="M779 110L695 0L668 125Z" fill="#004ba0" stroke="#004ba0"></path><path d="M178 152L196 242L258 166Z" fill="#abb1d9" stroke="#abb1d9"></path><path d="M258 166L196 242L285 273Z" fill="#969fd0" stroke="#969fd0"></path><path d="M512 0L354 0L417 120Z" fill="#d5d8ec" stroke="#d5d8ec"></path><path d="M288 91L223 106L258 166Z" fill="#c0c4e3" stroke="#c0c4e3"></path><path d="M270 0L223 106L288 91Z" fill="#c0c4e3" stroke="#c0c4e3"></path><path d="M196 242L169 385L269 354Z" fill="#d5d8ec" stroke="#d5d8ec"></path><path d="M248 423L183 461L322 540Z" fill="#365baa" stroke="#365baa"></path><path d="M844 209L875 128L776 169Z" fill="#526bb3" stroke="#526bb3"></path><path d="M779 110L790 0L695 0Z" fill="#526bb3" stroke="#526bb3"></path><path d="M960 195L875 128L844 209Z" fill="#6a7cbd" stroke="#6a7cbd"></path><path d="M960 240L844 209L848 265Z" fill="#004ba0" stroke="#004ba0"></path><path d="M169 385L183 461L248 423Z" fill="#818dc6" stroke="#818dc6"></path><path d="M758 540L886 474L765 410Z" fill="#6a7cbd" stroke="#6a7cbd"></path><path d="M843 393L960 332L848 265Z" fill="#6a7cbd" stroke="#6a7cbd"></path><path d="M223 106L178 152L258 166Z" fill="#eaebf6" stroke="#eaebf6"></path><path d="M196 242L122 278L169 385Z" fill="#969fd0" stroke="#969fd0"></path><path d="M879 0L790 0L779 110Z" fill="#818dc6" stroke="#818dc6"></path><path d="M354 0L270 0L288 91Z" fill="#c0c4e3" stroke="#c0c4e3"></path><path d="M223 106L85 67L178 152Z" fill="#abb1d9" stroke="#abb1d9"></path><path d="M101 207L122 278L196 242Z" fill="#abb1d9" stroke="#abb1d9"></path><path d="M169 385L107 460L183 461Z" fill="#365baa" stroke="#365baa"></path><path d="M122 278L116 344L169 385Z" fill="#969fd0" stroke="#969fd0"></path><path d="M960 436L960 332L843 393Z" fill="#d5d8ec" stroke="#d5d8ec"></path><path d="M960 332L960 240L848 265Z" fill="#969fd0" stroke="#969fd0"></path><path d="M875 128L879 0L779 110Z" fill="#969fd0" stroke="#969fd0"></path><path d="M758 540L899 540L886 474Z" fill="#818dc6" stroke="#818dc6"></path><path d="M886 474L960 436L843 393Z" fill="#c0c4e3" stroke="#c0c4e3"></path><path d="M107 460L168 540L183 461Z" fill="#abb1d9" stroke="#abb1d9"></path><path d="M183 461L168 540L322 540Z" fill="#526bb3" stroke="#526bb3"></path><path d="M960 240L960 195L844 209Z" fill="#d5d8ec" stroke="#d5d8ec"></path><path d="M960 540L960 436L886 474Z" fill="#969fd0" stroke="#969fd0"></path><path d="M178 152L101 207L196 242Z" fill="#526bb3" stroke="#526bb3"></path><path d="M122 278L0 353L116 344Z" fill="#526bb3" stroke="#526bb3"></path><path d="M85 67L101 207L178 152Z" fill="#526bb3" stroke="#526bb3"></path><path d="M56 540L107 460L0 449Z" fill="#526bb3" stroke="#526bb3"></path><path d="M116 344L107 460L169 385Z" fill="#eaebf6" stroke="#eaebf6"></path><path d="M960 106L879 0L875 128Z" fill="#ffffff" stroke="#ffffff"></path><path d="M960 195L960 106L875 128Z" fill="#365baa" stroke="#365baa"></path><path d="M270 0L181 0L223 106Z" fill="#c0c4e3" stroke="#c0c4e3"></path><path d="M899 540L960 540L886 474Z" fill="#969fd0" stroke="#969fd0"></path><path d="M181 0L85 67L223 106Z" fill="#d5d8ec" stroke="#d5d8ec"></path><path d="M0 353L107 460L116 344Z" fill="#eaebf6" stroke="#eaebf6"></path><path d="M960 106L960 0L879 0Z" fill="#6a7cbd" stroke="#6a7cbd"></path><path d="M0 353L122 278L0 234Z" fill="#818dc6" stroke="#818dc6"></path><path d="M107 460L56 540L168 540Z" fill="#818dc6" stroke="#818dc6"></path><path d="M0 234L122 278L101 207Z" fill="#818dc6" stroke="#818dc6"></path><path d="M181 0L92 0L85 67Z" fill="#969fd0" stroke="#969fd0"></path><path d="M0 172L0 234L101 207Z" fill="#ffffff" stroke="#ffffff"></path><path d="M0 172L101 207L85 67Z" fill="#c0c4e3" stroke="#c0c4e3"></path><path d="M0 90L0 172L85 67Z" fill="#eaebf6" stroke="#eaebf6"></path><path d="M0 353L0 449L107 460Z" fill="#969fd0" stroke="#969fd0"></path><path d="M0 0L0 90L85 67Z" fill="#6a7cbd" stroke="#6a7cbd"></path><path d="M0 449L0 540L56 540Z" fill="#526bb3" stroke="#526bb3"></path><path d="M92 0L0 0L85 67Z" fill="#ffffff" stroke="#ffffff"></path></g></svg>